<svg id="visual" viewBox="0 0 900 600" width="900" height="600" xmlns="http://www.w3.org/2000/svg" xmlns:xlink="http://www.w3.org/1999/xlink" version="1.1"><rect x="0" y="0" width="900" height="600" fill="#001220"></rect><path d="M0 460L16.7 449.3C33.3 438.7 66.7 417.3 100 400.8C133.3 384.3 166.7 372.7 200 368C233.3 363.3 266.7 365.7 300 366C333.3 366.3 366.7 364.7 400 379.2C433.3 393.7 466.7 424.3 500 439C533.3 453.7 566.7 452.3 600 443.7C633.3 435 666.7 419 700 408C733.3 397 766.7 391 800 386.7C833.3 382.3 866.7 379.7 883.3 378.3L900 377L900 601L883.3 601C866.7 601 833.3 601 800 601C766.7 601 733.3 601 700 601C666.7 601 633.3 601 600 601C566.7 601 533.3 601 500 601C466.7 601 433.3 601 400 601C366.7 601 333.3 601 300 601C266.7 601 233.3 601 200 601C166.7 601 133.3 601 100 601C66.7 601 33.3 601 16.7 601L0 601Z" fill="#ff0066"></path><path d="M0 479L16.7 475.7C33.3 472.3 66.7 465.7 100 459.2C133.3 452.7 166.7 446.3 200 451.7C233.3 457 266.7 474 300 477.3C333.3 480.7 366.7 470.3 400 459.2C433.3 448 466.7 436 500 438.8C533.3 441.7 566.7 459.3 600 472.5C633.3 485.7 666.7 494.3 700 499C733.3 503.7 766.7 504.3 800 491.2C833.3 478 866.7 451 883.3 437.5L900 424L900 601L883.3 601C866.7 601 833.3 601 800 601C766.7 601 733.3 601 700 601C666.7 601 633.3 601 600 601C566.7 601 533.3 601 500 601C466.7 601 433.3 601 400 601C366.7 601 333.3 601 300 601C266.7 601 233.3 601 200 601C166.7 601 133.3 601 100 601C66.7 601 33.3 601 16.7 601L0 601Z" fill="#e0003b"></path><path d="M0 519L16.7 521C33.3 523 66.7 527 100 530.7C133.3 534.3 166.7 537.7 200 538.7C233.3 539.7 266.7 538.3 300 533.5C333.3 528.7 366.7 520.3 400 521.7C433.3 523 466.7 534 500 535.7C533.3 537.3 566.7 529.7 600 528.7C633.3 527.7 666.7 533.3 700 533.5C733.3 533.7 766.7 528.3 800 531C833.3 533.7 866.7 544.3 883.3 549.7L900 555L900 601L883.3 601C866.7 601 833.3 601 800 601C766.7 601 733.3 601 700 601C666.7 601 633.3 601 600 601C566.7 601 533.3 601 500 601C466.7 601 433.3 601 400 601C366.7 601 333.3 601 300 601C266.7 601 233.3 601 200 601C166.7 601 133.3 601 100 601C66.7 601 33.3 601 16.7 601L0 601Z" fill="#bd1313"></path></svg>